<svg data-depth="0.45"
                                   id="greenGlass" width="65" height="65" viewBox="0 0 65 65" fill="none" xmlns="http://www.w3.org/2000/svg">
<g clip-path="url(#clip0)">
<path d="M45.698 49.851L55.2194 42.613C57.2356 41.0803 57.0524 37.992 54.8695 36.7084L32.7511 23.7045C31.429 22.9273 30.2717 21.8996 29.3437 20.6789L25.5467 15.684C24.9962 14.9599 24.7563 14.0468 24.8788 13.1455C24.9573 12.5712 24.8039 11.9892 24.4533 11.5279L23.9153 10.8202L13.9175 18.4204L14.4555 19.1281C14.8061 19.5893 15.3259 19.8929 15.9003 19.9709C16.8015 20.0939 17.6168 20.5696 18.1673 21.2937L21.9643 26.2886C22.8922 27.5093 23.5731 28.8997 23.9683 30.381L30.581 55.1721C31.2336 57.619 34.1603 58.6218 36.1765 57.0891L45.698 49.851Z" fill="white"/>
<path d="M30.581 55.1721C31.2336 57.619 34.1603 58.6218 36.1765 57.0891L55.2194 42.613C57.2356 41.0803 57.0524 37.992 54.8695 36.7084L38.8289 27.278L25.7853 37.1935L30.581 55.1721Z" fill="#93FFA4"/>
<path d="M55.3252 35.933L33.207 22.9293C31.9801 22.2078 30.9212 21.2676 30.0598 20.1345L26.2626 15.1394C25.8537 14.6015 25.6787 13.9365 25.77 13.2669C25.8812 12.4506 25.668 11.6395 25.1694 10.9835L24.6314 10.2759C24.3307 9.88035 23.7662 9.80369 23.371 10.1041L13.3731 17.7043C12.9776 18.005 12.9008 18.5692 13.2014 18.9647L13.7394 19.6724C14.238 20.3283 14.9622 20.751 15.7786 20.8622C16.4482 20.9534 17.0421 21.2999 17.4512 21.8381L21.2482 26.8329C22.1096 27.966 22.7325 29.2377 23.0992 30.6131L24.9162 37.4251C24.9169 37.4277 24.9175 37.4303 24.9182 37.4329L29.7117 55.4039C30.0958 56.8433 31.1666 57.9912 32.5759 58.4738C33.9855 58.9568 35.5348 58.7067 36.7208 57.8052L55.7638 43.329C56.9498 42.4275 57.6054 41.0013 57.5172 39.5139C57.4287 38.0267 56.6094 36.6882 55.3252 35.933V35.933ZM24.8374 30.1493C24.41 28.5468 23.6842 27.0648 22.6804 25.7442L18.8831 20.7491C18.1836 19.8288 17.1674 19.2358 16.0217 19.0797C15.6849 19.0338 15.3855 18.8606 15.1779 18.5921L23.7436 12.0806C23.9468 12.3525 24.0333 12.687 23.9874 13.0243C23.8316 14.1698 24.1306 15.3075 24.8304 16.2281L28.6274 21.2229C29.6313 22.5435 30.8654 23.6391 32.2949 24.4798L37.2274 27.3797L26.3118 35.6775L24.8374 30.1493ZM55.7212 39.6205C55.7747 40.5212 55.3934 41.3508 54.6751 41.8969L35.6321 56.373C34.9141 56.9188 34.0127 57.0643 33.1588 56.772C32.5149 56.5513 32.0029 56.117 31.69 55.5428L32.8698 54.6459C33.265 54.3454 33.342 53.7807 33.0415 53.3855C32.7409 52.99 32.1763 52.9133 31.7811 53.2138L31.1232 53.7139L30.4214 51.0837L31.6292 50.1656C32.0247 49.8649 32.1014 49.3004 31.801 48.9052C31.5003 48.5097 30.9361 48.4328 30.5405 48.7334L29.9204 49.2049L29.2186 46.5747L30.4605 45.6306C30.8561 45.33 30.9327 44.7654 30.6323 44.3702C30.3316 43.9747 29.7674 43.8978 29.3719 44.1985L28.7176 44.6958L28.0161 42.0655L29.2916 41.0959C29.6871 40.7952 29.7638 40.2307 29.4633 39.8355C29.1626 39.4399 28.5984 39.3631 28.2029 39.6637L27.5148 40.1868L26.8133 37.5565L38.9037 28.3656L54.4135 37.484C55.191 37.9412 55.6678 38.7201 55.7212 39.6205V39.6205Z" fill="black"/>
<path d="M51.8231 38.6659C51.3948 38.4137 50.8438 38.5563 50.5914 38.9843C50.3395 39.4123 50.4818 39.9635 50.9098 40.2159L50.9205 40.2219C51.2448 40.4128 51.6395 40.3775 51.9217 40.163C52.0121 40.0943 52.0909 40.0075 52.1522 39.9035C52.4041 39.4755 52.2616 38.924 51.8335 38.6721L51.8231 38.6659Z" fill="black"/>
<path d="M48.9356 36.9681L41.6197 32.667C41.1916 32.4151 40.6403 32.5579 40.3884 32.9864C40.1365 33.4145 40.2797 33.9659 40.7078 34.2177L48.0237 38.5188C48.348 38.7097 48.7423 38.6739 49.0245 38.4593C49.1149 38.3907 49.1939 38.3036 49.255 38.1994C49.5069 37.7713 49.3639 37.2198 48.9356 36.9681V36.9681Z" fill="black"/>
</g>
<defs>
<clipPath id="clip0">
<rect y="27.8704" width="46.0534" height="46.0534" transform="rotate(-37.2415 0 27.8704)" fill="white"/>
</clipPath>
</defs>
</svg>
